<svg width="88" height="88" viewBox="0 0 88 88" fill="none" xmlns="http://www.w3.org/2000/svg">
<path fill-rule="evenodd" clip-rule="evenodd" d="M38.5 24C37.9477 24 37.5 24.4477 37.5 25H34.5C34.2239 25 34 25.2239 34 25.5C34 25.7761 34.2239 26 34.5 26H35V39H34.5C34.2239 39 34 39.2239 34 39.5C34 39.7761 34.2239 40 34.5 40H44.5C44.7761 40 45 39.7761 45 39.5C45 39.2239 44.7761 39 44.5 39H44V38.5H48C48.5523 38.5 49 38.0523 49 37.5V32.5H53C53.5523 32.5 54 32.0523 54 31.5V27.5C54 26.9477 53.5523 26.5 53 26.5H44V26H44.5C44.7761 26 45 25.7761 45 25.5C45 25.2239 44.7761 25 44.5 25H41.5C41.5 24.4477 41.0523 24 40.5 24H38.5ZM44 27.5C44 27.2239 44.2239 27 44.5 27H45C45.2761 27 45.5 27.2239 45.5 27.5C45.5 27.7761 45.2761 28 45 28H44.5C44.2239 28 44 27.7761 44 27.5ZM44.5 37C44.2239 37 44 37.2239 44 37.5C44 37.7761 44.2239 38 44.5 38H45C45.2761 38 45.5 37.7761 45.5 37.5C45.5 37.2239 45.2761 37 45 37H44.5ZM46.5 27.5C46.5 27.2239 46.7239 27 47 27H47.5C47.7761 27 48 27.2239 48 27.5C48 27.7761 47.7761 28 47.5 28H47C46.7239 28 46.5 27.7761 46.5 27.5ZM47 37C46.7239 37 46.5 37.2239 46.5 37.5C46.5 37.7761 46.7239 38 47 38H47.5C47.7761 38 48 37.7761 48 37.5C48 37.2239 47.7761 37 47.5 37H47ZM49 27.5C49 27.2239 49.2239 27 49.5 27H50C50.2761 27 50.5 27.2239 50.5 27.5C50.5 27.7761 50.2761 28 50 28H49.5C49.2239 28 49 27.7761 49 27.5ZM49.5 31C49.2239 31 49 31.2239 49 31.5C49 31.7761 49.2239 32 49.5 32H50C50.2761 32 50.5 31.7761 50.5 31.5C50.5 31.2239 50.2761 31 50 31H49.5ZM51.5 27.5C51.5 27.2239 51.7239 27 52 27H52.5C52.7761 27 53 27.2239 53 27.5C53 27.7761 52.7761 28 52.5 28H52C51.7239 28 51.5 27.7761 51.5 27.5ZM52 31C51.7239 31 51.5 31.2239 51.5 31.5C51.5 31.7761 51.7239 32 52 32H52.5C52.7761 32 53 31.7761 53 31.5C53 31.2239 52.7761 31 52.5 31H52Z" fill="#CCD3E5"/>
<path d="M24.1635 53.2727V62H22.7573L18.6451 56.0554H18.5726V62H16.9917V53.2727H18.4064L22.5144 59.2216H22.5911V53.2727H24.1635ZM28.6731 62.1278C28.0339 62.1278 27.4799 61.9872 27.0112 61.706C26.5424 61.4247 26.1788 61.0312 25.9203 60.5256C25.6646 60.0199 25.5368 59.429 25.5368 58.7528C25.5368 58.0767 25.6646 57.4844 25.9203 56.9759C26.1788 56.4673 26.5424 56.0724 27.0112 55.7912C27.4799 55.5099 28.0339 55.3693 28.6731 55.3693C29.3123 55.3693 29.8663 55.5099 30.335 55.7912C30.8038 56.0724 31.166 56.4673 31.4217 56.9759C31.6802 57.4844 31.8095 58.0767 31.8095 58.7528C31.8095 59.429 31.6802 60.0199 31.4217 60.5256C31.166 61.0312 30.8038 61.4247 30.335 61.706C29.8663 61.9872 29.3123 62.1278 28.6731 62.1278ZM28.6816 60.892C29.0282 60.892 29.318 60.7969 29.551 60.6065C29.7839 60.4134 29.9572 60.1548 30.0708 59.831C30.1873 59.5071 30.2456 59.1463 30.2456 58.7486C30.2456 58.348 30.1873 57.9858 30.0708 57.6619C29.9572 57.3352 29.7839 57.0753 29.551 56.8821C29.318 56.6889 29.0282 56.5923 28.6816 56.5923C28.3265 56.5923 28.0311 56.6889 27.7953 56.8821C27.5623 57.0753 27.3876 57.3352 27.2711 57.6619C27.1575 57.9858 27.1007 58.348 27.1007 58.7486C27.1007 59.1463 27.1575 59.5071 27.2711 59.831C27.3876 60.1548 27.5623 60.4134 27.7953 60.6065C28.0311 60.7969 28.3265 60.892 28.6816 60.892ZM37.7445 53.2727V62H36.1635V53.2727H37.7445ZM39.3883 62V55.4545H40.8627V56.5668H40.9395C41.0758 56.1918 41.3017 55.8991 41.617 55.6889C41.9324 55.4759 42.3088 55.3693 42.7463 55.3693C43.1895 55.3693 43.563 55.4773 43.867 55.6932C44.1738 55.9062 44.3897 56.1974 44.5147 56.5668H44.5829C44.7278 56.2031 44.9721 55.9134 45.3159 55.6974C45.6625 55.4787 46.073 55.3693 46.5474 55.3693C47.1497 55.3693 47.6412 55.5597 48.0218 55.9403C48.4025 56.321 48.5929 56.8764 48.5929 57.6065V62H47.046V57.8452C47.046 57.4389 46.938 57.142 46.7221 56.9545C46.5062 56.7642 46.242 56.669 45.9295 56.669C45.5574 56.669 45.2662 56.7855 45.0559 57.0185C44.8485 57.2486 44.7449 57.5483 44.7449 57.9176V62H43.2321V57.7812C43.2321 57.4432 43.1298 57.1733 42.9252 56.9716C42.7235 56.7699 42.4593 56.669 42.1326 56.669C41.911 56.669 41.7093 56.7259 41.5275 56.8395C41.3457 56.9503 41.2008 57.108 41.0929 57.3125C40.9849 57.5142 40.9309 57.75 40.9309 58.0199V62H39.3883ZM52.0414 62.1321C51.6266 62.1321 51.253 62.0582 50.9206 61.9105C50.5911 61.7599 50.3297 61.5384 50.1365 61.2457C49.9462 60.9531 49.851 60.5923 49.851 60.1634C49.851 59.794 49.9192 59.4886 50.0556 59.2472C50.1919 59.0057 50.378 58.8125 50.6138 58.6676C50.8496 58.5227 51.1152 58.4134 51.4107 58.3395C51.709 58.2628 52.0172 58.2074 52.3354 58.1733C52.7189 58.1335 53.03 58.098 53.2686 58.0668C53.5073 58.0327 53.6806 57.9815 53.7885 57.9134C53.8993 57.8423 53.9547 57.733 53.9547 57.5852V57.5597C53.9547 57.2386 53.8596 56.9901 53.6692 56.8139C53.4789 56.6378 53.2047 56.5497 52.8468 56.5497C52.4689 56.5497 52.1692 56.6321 51.9476 56.7969C51.7289 56.9616 51.5811 57.1562 51.5044 57.3807L50.0641 57.1761C50.1777 56.7784 50.3652 56.446 50.6266 56.179C50.888 55.9091 51.2076 55.7074 51.5854 55.5739C51.9632 55.4375 52.3809 55.3693 52.8382 55.3693C53.1536 55.3693 53.4675 55.4062 53.78 55.4801C54.0925 55.554 54.378 55.6761 54.6365 55.8466C54.8951 56.0142 55.1025 56.2429 55.2587 56.5327C55.4178 56.8224 55.4973 57.1847 55.4973 57.6193V62H54.0144V61.1009H53.9632C53.8695 61.2827 53.7374 61.4531 53.5669 61.6122C53.3993 61.7685 53.1877 61.8949 52.932 61.9915C52.6792 62.0852 52.3823 62.1321 52.0414 62.1321ZM52.4419 60.9986C52.7516 60.9986 53.0201 60.9375 53.2473 60.8153C53.4746 60.6903 53.6493 60.5256 53.7715 60.321C53.8965 60.1165 53.959 59.8935 53.959 59.652V58.8807C53.9107 58.9205 53.8283 58.9574 53.7118 58.9915C53.5982 59.0256 53.4703 59.0554 53.3283 59.081C53.1863 59.1065 53.0456 59.1293 52.9064 59.1491C52.7672 59.169 52.6465 59.1861 52.5442 59.2003C52.3141 59.2315 52.1081 59.2827 51.9263 59.3537C51.7445 59.4247 51.601 59.5241 51.4959 59.652C51.3908 59.777 51.3382 59.9389 51.3382 60.1378C51.3382 60.4219 51.4419 60.6364 51.6493 60.7812C51.8567 60.9261 52.1209 60.9986 52.4419 60.9986ZM59.8951 64.5909C59.3411 64.5909 58.8652 64.5156 58.4675 64.3651C58.0698 64.2173 57.7502 64.0185 57.5087 63.7685C57.2672 63.5185 57.0996 63.2415 57.0059 62.9375L58.3951 62.6009C58.4576 62.7287 58.5485 62.8551 58.6678 62.9801C58.7871 63.108 58.9476 63.2131 59.1493 63.2955C59.3539 63.3807 59.611 63.4233 59.9206 63.4233C60.3581 63.4233 60.7203 63.3168 61.0073 63.1037C61.2942 62.8935 61.4377 62.5469 61.4377 62.0639V60.8239H61.361C61.2814 60.983 61.165 61.1463 61.0115 61.3139C60.861 61.4815 60.6607 61.6222 60.4107 61.7358C60.1635 61.8494 59.8525 61.9062 59.4775 61.9062C58.9746 61.9062 58.5186 61.7884 58.1096 61.5526C57.7033 61.3139 57.3794 60.9588 57.138 60.4872C56.8993 60.0128 56.78 59.419 56.78 58.706C56.78 57.9872 56.8993 57.3807 57.138 56.8864C57.3794 56.3892 57.7047 56.0128 58.1138 55.7571C58.5229 55.4986 58.9789 55.3693 59.4817 55.3693C59.8652 55.3693 60.1806 55.4347 60.4277 55.5653C60.6777 55.6932 60.8766 55.848 61.0243 56.0298C61.1721 56.2088 61.2843 56.3778 61.361 56.5369H61.4462V55.4545H62.9675V62.1065C62.9675 62.6662 62.834 63.1293 62.5669 63.4957C62.2999 63.8622 61.9348 64.1364 61.4718 64.3182C61.0087 64.5 60.4831 64.5909 59.8951 64.5909ZM59.9078 60.696C60.2346 60.696 60.513 60.6165 60.7431 60.4574C60.9732 60.2983 61.1479 60.0696 61.2672 59.7713C61.3865 59.473 61.4462 59.1151 61.4462 58.6974C61.4462 58.2855 61.3865 57.9247 61.2672 57.6151C61.1507 57.3054 60.9775 57.0653 60.7473 56.8949C60.5201 56.7216 60.2402 56.6349 59.9078 56.6349C59.5641 56.6349 59.2772 56.7244 59.0471 56.9034C58.8169 57.0824 58.6436 57.3281 58.5272 57.6406C58.4107 57.9503 58.3525 58.3026 58.3525 58.6974C58.3525 59.098 58.4107 59.4489 58.5272 59.75C58.6465 60.0483 58.8212 60.2812 59.0513 60.4489C59.2843 60.6136 59.5698 60.696 59.9078 60.696ZM67.4462 62.1278C66.79 62.1278 66.2232 61.9915 65.7459 61.7188C65.2715 61.4432 64.9064 61.054 64.6507 60.5511C64.3951 60.0455 64.2672 59.4503 64.2672 58.7656C64.2672 58.0923 64.3951 57.5014 64.6507 56.9929C64.9093 56.4815 65.2701 56.0838 65.7331 55.7997C66.1962 55.5128 66.7402 55.3693 67.3652 55.3693C67.7686 55.3693 68.1493 55.4347 68.5073 55.5653C68.8681 55.6932 69.1863 55.892 69.4618 56.1619C69.7402 56.4318 69.959 56.7756 70.1181 57.1932C70.2772 57.608 70.3567 58.1023 70.3567 58.6761V59.1491H64.9917V58.1094H68.878C68.8752 57.8139 68.8113 57.5511 68.6863 57.321C68.5613 57.0881 68.3865 56.9048 68.1621 56.7713C67.9405 56.6378 67.682 56.571 67.3865 56.571C67.0712 56.571 66.7942 56.6477 66.5556 56.8011C66.3169 56.9517 66.1309 57.1506 65.9973 57.3977C65.8667 57.642 65.7999 57.9105 65.7971 58.2031V59.1108C65.7971 59.4915 65.8667 59.8182 66.0059 60.0909C66.1451 60.3608 66.3397 60.5682 66.5897 60.7131C66.8397 60.8551 67.1323 60.9261 67.4675 60.9261C67.6919 60.9261 67.8951 60.8949 68.0769 60.8324C68.2587 60.767 68.4164 60.6719 68.5499 60.5469C68.6834 60.4219 68.7843 60.267 68.8525 60.0824L70.2928 60.2443C70.2019 60.625 70.0286 60.9574 69.7729 61.2415C69.5201 61.5227 69.1962 61.7415 68.8013 61.8977C68.4064 62.0511 67.9547 62.1278 67.4462 62.1278Z" fill="#CCD3E5"/>
<rect x="0.5" y="0.5" width="87" height="87" rx="11.5" stroke="#CCD3E5"/>
</svg>
