<svg width="24" height="24" viewBox="0 0 24 24" fill="none" xmlns="http://www.w3.org/2000/svg">
<path fill-rule="evenodd" clip-rule="evenodd" d="M12 21C16.9706 21 21 16.9706 21 12C21 7.02944 16.9706 3 12 3C7.02944 3 3 7.02944 3 12C3 16.9706 7.02944 21 12 21ZM7.7574 12.364C7.36688 11.9734 7.36688 11.3403 7.7574 10.9498C8.14792 10.5592 8.78109 10.5592 9.17161 10.9498L11.2929 13.0711L14.8285 9.53554C15.219 9.14502 15.8522 9.14502 16.2427 9.53554C16.6332 9.92606 16.6332 10.5592 16.2427 10.9498L12 15.1924C11.6095 15.5829 10.9764 15.5829 10.5858 15.1924L7.7574 12.364Z" fill="white"/>
</svg>
