<svg width="24" height="24" viewBox="0 0 24 24" fill="none" xmlns="http://www.w3.org/2000/svg">
<path fill-rule="evenodd" clip-rule="evenodd" d="M12 5.67363C11.0907 5.24169 10.0736 5 9 5C5.13401 5 2 8.13401 2 12C2 15.866 5.13401 19 9 19C10.0736 19 11.0907 18.7583 12 18.3264C12.9093 18.7583 13.9264 19 15 19C18.866 19 22 15.866 22 12C22 8.13401 18.866 5 15 5C13.9264 5 12.9093 5.24169 12 5.67363ZM13.9992 16.8998C15.2369 15.6372 16 13.9077 16 12C16 10.0923 15.2369 8.36279 13.9992 7.10018C14.3225 7.03449 14.6572 7 15 7C17.7614 7 20 9.23858 20 12C20 14.7614 17.7614 17 15 17C14.6572 17 14.3225 16.9655 13.9992 16.8998Z" fill="white"/>
</svg>
