<svg width="24" height="24" viewBox="0 0 24 24" fill="none" xmlns="http://www.w3.org/2000/svg">
<path fill-rule="evenodd" clip-rule="evenodd" d="M3 5C3 3.89543 3.89543 3 5 3H19C20.1046 3 21 3.89543 21 5V19C21 20.1046 20.1046 21 19 21H5C3.89543 21 3 20.1046 3 19V5ZM5 6C5 5.44772 5.44772 5 6 5H7C7.55228 5 8 5.44772 8 6C8 6.55228 7.55228 7 7 7H6C5.44772 7 5 6.55228 5 6ZM17 5C16.4477 5 16 5.44772 16 6C16 6.55228 16.4477 7 17 7H18C18.5523 7 19 6.55228 19 6C19 5.44772 18.5523 5 18 5H17ZM5 10C5 9.44772 5.44772 9 6 9H7C7.55228 9 8 9.44772 8 10C8 10.5523 7.55228 11 7 11H6C5.44772 11 5 10.5523 5 10ZM17 9C16.4477 9 16 9.44772 16 10C16 10.5523 16.4477 11 17 11H18C18.5523 11 19 10.5523 19 10C19 9.44772 18.5523 9 18 9H17ZM5 14C5 13.4477 5.44772 13 6 13H7C7.55228 13 8 13.4477 8 14C8 14.5523 7.55228 15 7 15H6C5.44772 15 5 14.5523 5 14ZM17 13C16.4477 13 16 13.4477 16 14C16 14.5523 16.4477 15 17 15H18C18.5523 15 19 14.5523 19 14C19 13.4477 18.5523 13 18 13H17ZM5 18C5 17.4477 5.44772 17 6 17H7C7.55228 17 8 17.4477 8 18C8 18.5523 7.55228 19 7 19H6C5.44772 19 5 18.5523 5 18ZM17 17C16.4477 17 16 17.4477 16 18C16 18.5523 16.4477 19 17 19H18C18.5523 19 19 18.5523 19 18C19 17.4477 18.5523 17 18 17H17Z" fill="white"/>
</svg>
