<svg width="24" height="24" viewBox="0 0 24 24" fill="none" xmlns="http://www.w3.org/2000/svg">
<path d="M9 6C9 7.65685 7.65685 9 6 9C4.34315 9 3 7.65685 3 6C3 4.34315 4.34315 3 6 3C7.65685 3 9 4.34315 9 6Z" fill="#1B1E25"/>
<path d="M15 5C15 6.10457 14.1046 7 13 7C11.8954 7 11 6.10457 11 5C11 3.89543 11.8954 3 13 3C14.1046 3 15 3.89543 15 5Z" fill="#1B1E25"/>
<path d="M13 15C14.1046 15 15 14.1046 15 13C15 11.8954 14.1046 11 13 11C11.8954 11 11 11.8954 11 13C11 14.1046 11.8954 15 13 15Z" fill="#1B1E25"/>
<path d="M7 13C7 14.1046 6.10457 15 5 15C3.89543 15 3 14.1046 3 13C3 11.8954 3.89543 11 5 11C6.10457 11 7 11.8954 7 13Z" fill="#1B1E25"/>
<path d="M4.5 21C5.32843 21 6 20.3284 6 19.5C6 18.6716 5.32843 18 4.5 18C3.67157 18 3 18.6716 3 19.5C3 20.3284 3.67157 21 4.5 21Z" fill="#1B1E25"/>
<path d="M11 19.5C11 20.3284 10.3284 21 9.5 21C8.67157 21 8 20.3284 8 19.5C8 18.6716 8.67157 18 9.5 18C10.3284 18 11 18.6716 11 19.5Z" fill="#1B1E25"/>
<path d="M14.5 21C15.3284 21 16 20.3284 16 19.5C16 18.6716 15.3284 18 14.5 18C13.6716 18 13 18.6716 13 19.5C13 20.3284 13.6716 21 14.5 21Z" fill="#1B1E25"/>
<path d="M21 4.5C21 5.32843 20.3284 6 19.5 6C18.6716 6 18 5.32843 18 4.5C18 3.67157 18.6716 3 19.5 3C20.3284 3 21 3.67157 21 4.5Z" fill="#1B1E25"/>
<path d="M19.5 11C20.3284 11 21 10.3284 21 9.5C21 8.67157 20.3284 8 19.5 8C18.6716 8 18 8.67157 18 9.5C18 10.3284 18.6716 11 19.5 11Z" fill="#1B1E25"/>
<path d="M21 14.5C21 15.3284 20.3284 16 19.5 16C18.6716 16 18 15.3284 18 14.5C18 13.6716 18.6716 13 19.5 13C20.3284 13 21 13.6716 21 14.5Z" fill="#1B1E25"/>
<path d="M19.5 21C20.3284 21 21 20.3284 21 19.5C21 18.6716 20.3284 18 19.5 18C18.6716 18 18 18.6716 18 19.5C18 20.3284 18.6716 21 19.5 21Z" fill="#1B1E25"/>
</svg>
