<svg width="24" height="24" viewBox="0 0 24 24" fill="none" xmlns="http://www.w3.org/2000/svg">
<path fill-rule="evenodd" clip-rule="evenodd" d="M12 3C11.4477 3 11 3.44772 11 4V5.07089C9.81407 5.24052 8.72403 5.70741 7.80778 6.39366L7.05003 5.63591C6.65951 5.24539 6.02634 5.24539 5.63582 5.63591C5.24529 6.02644 5.24529 6.6596 5.63582 7.05012L6.39358 7.80788C5.70737 8.72411 5.24052 9.81412 5.07089 11H4C3.44772 11 3 11.4477 3 12C3 12.5523 3.44772 13 4 13H5.07089C5.24051 14.1858 5.70732 15.2757 6.39345 16.1919L5.63567 16.9497C5.24514 17.3402 5.24514 17.9734 5.63567 18.3639C6.02619 18.7545 6.65936 18.7545 7.04988 18.3639L7.8076 17.6062C8.72389 18.2925 9.814 18.7595 11 18.9291V20C11 20.5523 11.4477 21 12 21C12.5523 21 13 20.5523 13 20V18.9291C14.1859 18.7595 15.2759 18.2926 16.1921 17.6064L16.9495 18.3638C17.3401 18.7544 17.9732 18.7544 18.3637 18.3638C18.7543 17.9733 18.7543 17.3401 18.3637 16.9496L17.6063 16.1922C18.2926 15.276 18.7595 14.1859 18.9291 13H20C20.5523 13 21 12.5523 21 12C21 11.4477 20.5523 11 20 11H18.9291C18.7595 9.81399 18.2925 8.72389 17.6062 7.8076L18.3636 7.05023C18.7541 6.65971 18.7541 6.02654 18.3636 5.63602C17.9731 5.24549 17.3399 5.24549 16.9494 5.63602L16.1919 6.39345C15.2757 5.70732 14.1858 5.24051 13 5.07089V4C13 3.44772 12.5523 3 12 3ZM17 12C17 14.7614 14.7614 17 12 17C9.23858 17 7 14.7614 7 12C7 9.23858 9.23858 7 12 7C14.7614 7 17 9.23858 17 12Z" fill="#1B1E25"/>
</svg>
