<svg width="24" height="24" viewBox="0 0 24 24" fill="none" xmlns="http://www.w3.org/2000/svg">
<path d="M7.42951 10.4032V14.3236H8.18235C9.2619 14.3236 9.8869 13.8833 9.8869 12.3634C9.8869 10.8435 9.2619 10.4032 8.12553 10.4032H7.42951Z" fill="#1B1E25"/>
<path d="M14.7635 10.3038V12.0651H15.4595C16.152 12.0651 16.5675 11.8201 16.5675 11.1986C16.5675 10.5736 16.152 10.3038 15.4595 10.3038H14.7635Z" fill="#1B1E25"/>
<path fill-rule="evenodd" clip-rule="evenodd" d="M5 3C3.89543 3 3 3.89543 3 5V19C3 20.1046 3.89543 21 5 21H19C20.1046 21 21 20.1046 21 19V5C21 3.89543 20.1046 3 19 3H5ZM11.8755 12.3634C11.8755 14.6361 10.4693 15.9998 8.25337 15.9998H5.45508V8.72705H8.22496C10.4693 8.72705 11.8755 10.0907 11.8755 12.3634ZM14.7635 15.9998H12.7891V8.72705H15.9283C17.544 8.72705 18.6271 9.65035 18.6271 11.1986C18.6271 12.2072 18.1655 12.9138 17.3913 13.2867L18.8686 15.9998H16.7237L15.4453 13.5992H14.7635V15.9998Z" fill="#1B1E25"/>
</svg>
