<svg width="24" height="24" viewBox="0 0 24 24" fill="none" xmlns="http://www.w3.org/2000/svg">
<path d="M4.5 6C5.32843 6 6 5.32843 6 4.5C6 3.67157 5.32843 3 4.5 3C3.67157 3 3 3.67157 3 4.5C3 5.32843 3.67157 6 4.5 6Z" fill="white"/>
<path d="M4.5 11C5.32843 11 6 10.3284 6 9.5C6 8.67157 5.32843 8 4.5 8C3.67157 8 3 8.67157 3 9.5C3 10.3284 3.67157 11 4.5 11Z" fill="white"/>
<path d="M6 14.5C6 15.3284 5.32843 16 4.5 16C3.67157 16 3 15.3284 3 14.5C3 13.6716 3.67157 13 4.5 13C5.32843 13 6 13.6716 6 14.5Z" fill="white"/>
<path d="M4.5 21C5.32843 21 6 20.3284 6 19.5C6 18.6716 5.32843 18 4.5 18C3.67157 18 3 18.6716 3 19.5C3 20.3284 3.67157 21 4.5 21Z" fill="white"/>
<path d="M11 4.5C11 5.32843 10.3284 6 9.5 6C8.67157 6 8 5.32843 8 4.5C8 3.67157 8.67157 3 9.5 3C10.3284 3 11 3.67157 11 4.5Z" fill="white"/>
<path d="M9.5 11C10.3284 11 11 10.3284 11 9.5C11 8.67157 10.3284 8 9.5 8C8.67157 8 8 8.67157 8 9.5C8 10.3284 8.67157 11 9.5 11Z" fill="white"/>
<path d="M11 14.5C11 15.3284 10.3284 16 9.5 16C8.67157 16 8 15.3284 8 14.5C8 13.6716 8.67157 13 9.5 13C10.3284 13 11 13.6716 11 14.5Z" fill="white"/>
<path d="M9.5 21C10.3284 21 11 20.3284 11 19.5C11 18.6716 10.3284 18 9.5 18C8.67157 18 8 18.6716 8 19.5C8 20.3284 8.67157 21 9.5 21Z" fill="white"/>
<path d="M16 4.5C16 5.32843 15.3284 6 14.5 6C13.6716 6 13 5.32843 13 4.5C13 3.67157 13.6716 3 14.5 3C15.3284 3 16 3.67157 16 4.5Z" fill="white"/>
<path d="M14.5 11C15.3284 11 16 10.3284 16 9.5C16 8.67157 15.3284 8 14.5 8C13.6716 8 13 8.67157 13 9.5C13 10.3284 13.6716 11 14.5 11Z" fill="white"/>
<path d="M16 14.5C16 15.3284 15.3284 16 14.5 16C13.6716 16 13 15.3284 13 14.5C13 13.6716 13.6716 13 14.5 13C15.3284 13 16 13.6716 16 14.5Z" fill="white"/>
<path d="M14.5 21C15.3284 21 16 20.3284 16 19.5C16 18.6716 15.3284 18 14.5 18C13.6716 18 13 18.6716 13 19.5C13 20.3284 13.6716 21 14.5 21Z" fill="white"/>
<path d="M21 4.5C21 5.32843 20.3284 6 19.5 6C18.6716 6 18 5.32843 18 4.5C18 3.67157 18.6716 3 19.5 3C20.3284 3 21 3.67157 21 4.5Z" fill="white"/>
<path d="M19.5 11C20.3284 11 21 10.3284 21 9.5C21 8.67157 20.3284 8 19.5 8C18.6716 8 18 8.67157 18 9.5C18 10.3284 18.6716 11 19.5 11Z" fill="white"/>
<path d="M21 14.5C21 15.3284 20.3284 16 19.5 16C18.6716 16 18 15.3284 18 14.5C18 13.6716 18.6716 13 19.5 13C20.3284 13 21 13.6716 21 14.5Z" fill="white"/>
<path d="M19.5 21C20.3284 21 21 20.3284 21 19.5C21 18.6716 20.3284 18 19.5 18C18.6716 18 18 18.6716 18 19.5C18 20.3284 18.6716 21 19.5 21Z" fill="white"/>
</svg>
