<svg width="24" height="24" viewBox="0 0 24 24" fill="none" xmlns="http://www.w3.org/2000/svg">
<path fill-rule="evenodd" clip-rule="evenodd" d="M11 4C11 3.44772 11.4477 3 12 3C12.5523 3 13 3.44772 13 4V5.07089C14.1858 5.24051 15.2757 5.70732 16.1919 6.39345L16.9494 5.63602C17.3399 5.24549 17.9731 5.24549 18.3636 5.63602C18.7541 6.02654 18.7541 6.65971 18.3636 7.05023L17.6062 7.8076C18.2925 8.72389 18.7595 9.81399 18.9291 11H20C20.5523 11 21 11.4477 21 12C21 12.5523 20.5523 13 20 13H18.9291C18.7595 14.1859 18.2926 15.276 17.6063 16.1922L18.3637 16.9496C18.7543 17.3401 18.7543 17.9733 18.3637 18.3638C17.9732 18.7544 17.3401 18.7544 16.9495 18.3638L16.1921 17.6064C15.2759 18.2926 14.1859 18.7595 13 18.9291V20C13 20.5523 12.5523 21 12 21C11.4477 21 11 20.5523 11 20V18.9291C9.814 18.7595 8.72389 18.2925 7.8076 17.6062L7.04988 18.3639C6.65936 18.7545 6.02619 18.7545 5.63567 18.3639C5.24514 17.9734 5.24514 17.3402 5.63567 16.9497L6.39345 16.1919C5.70732 15.2757 5.24051 14.1858 5.07089 13H4C3.44772 13 3 12.5523 3 12C3 11.4477 3.44772 11 4 11H5.07089C5.24052 9.81412 5.70737 8.72411 6.39358 7.80788L5.63582 7.05012C5.24529 6.6596 5.24529 6.02644 5.63582 5.63591C6.02634 5.24539 6.65951 5.24539 7.05003 5.63591L7.80778 6.39366C8.72403 5.70741 9.81407 5.24052 11 5.07089V4ZM12 7V17C9.23858 17 7 14.7614 7 12C7 9.23858 9.23858 7 12 7Z" fill="white"/>
</svg>
