<svg width="48" height="48" viewBox="0 0 48 48" fill="none" xmlns="http://www.w3.org/2000/svg">
<path fill-rule="evenodd" clip-rule="evenodd" d="M13 8C11.8954 8 11 8.89543 11 10H5C4.44772 10 4 10.4477 4 11C4 11.5523 4.44772 12 5 12H6V38H5C4.44772 38 4 38.4477 4 39C4 39.5523 4.44772 40 5 40H25C25.5523 40 26 39.5523 26 39C26 38.4477 25.5523 38 25 38H24V37H32C33.1046 37 34 36.1046 34 35V25H42C43.1046 25 44 24.1046 44 23V15C44 13.8954 43.1046 13 42 13H24V12H25C25.5523 12 26 11.5523 26 11C26 10.4477 25.5523 10 25 10H19C19 8.89543 18.1046 8 17 8H13ZM24 15C24 14.4477 24.4477 14 25 14H26C26.5523 14 27 14.4477 27 15C27 15.5523 26.5523 16 26 16H25C24.4477 16 24 15.5523 24 15ZM25 34C24.4477 34 24 34.4477 24 35C24 35.5523 24.4477 36 25 36H26C26.5523 36 27 35.5523 27 35C27 34.4477 26.5523 34 26 34H25ZM29 15C29 14.4477 29.4477 14 30 14H31C31.5523 14 32 14.4477 32 15C32 15.5523 31.5523 16 31 16H30C29.4477 16 29 15.5523 29 15ZM30 34C29.4477 34 29 34.4477 29 35C29 35.5523 29.4477 36 30 36H31C31.5523 36 32 35.5523 32 35C32 34.4477 31.5523 34 31 34H30ZM34 15C34 14.4477 34.4477 14 35 14H36C36.5523 14 37 14.4477 37 15C37 15.5523 36.5523 16 36 16H35C34.4477 16 34 15.5523 34 15ZM35 22C34.4477 22 34 22.4477 34 23C34 23.5523 34.4477 24 35 24H36C36.5523 24 37 23.5523 37 23C37 22.4477 36.5523 22 36 22H35ZM39 15C39 14.4477 39.4477 14 40 14H41C41.5523 14 42 14.4477 42 15C42 15.5523 41.5523 16 41 16H40C39.4477 16 39 15.5523 39 15ZM40 22C39.4477 22 39 22.4477 39 23C39 23.5523 39.4477 24 40 24H41C41.5523 24 42 23.5523 42 23C42 22.4477 41.5523 22 41 22H40Z" fill="#8A96B9"/>
</svg>
