<svg width="24" height="24" viewBox="0 0 24 24" fill="none" xmlns="http://www.w3.org/2000/svg">
<path fill-rule="evenodd" clip-rule="evenodd" d="M21 12C21 16.9706 16.9706 21 12 21C7.02944 21 3 16.9706 3 12C3 7.02944 7.02944 3 12 3C16.9706 3 21 7.02944 21 12ZM19 12C19 15.866 15.866 19 12 19C10.4277 19 8.97651 18.4816 7.80795 17.6065L17.6065 7.80795C18.4816 8.97651 19 10.4277 19 12ZM16.1923 6.39371C15.0237 5.51844 13.5724 5 12 5C8.13401 5 5 8.13401 5 12C5 13.5724 5.51844 15.0237 6.39371 16.1923L16.1923 6.39371Z" fill="white"/>
</svg>
