<svg width="18" height="18" viewBox="0 0 18 18" fill="none" xmlns="http://www.w3.org/2000/svg">
<path d="M8.00035 4C8.00035 3.44772 8.44807 3 9.00035 3C9.55264 3 10.0004 3.44772 10.0004 4V7.26784L12.8306 5.63379C13.3089 5.35765 13.9205 5.52152 14.1966 5.99981C14.4728 6.47811 14.3089 7.0897 13.8306 7.36584L11 9.00008L13.8303 10.6342C14.3086 10.9103 14.4725 11.5219 14.1964 12.0002C13.9202 12.4785 13.3086 12.6424 12.8303 12.3662L10.0004 10.7323V14C10.0004 14.5523 9.55264 15 9.00035 15C8.44807 15 8.00035 14.5523 8.00035 14V10.7319L5.17036 12.3658C4.69207 12.642 4.08048 12.4781 3.80434 11.9998C3.52819 11.5215 3.69207 10.9099 4.17036 10.6338L7.00003 9.00008L4.17009 7.36621C3.6918 7.09007 3.52792 6.47848 3.80406 6.00019C4.08021 5.52189 4.6918 5.35802 5.17009 5.63416L8.00035 7.26821V4Z" fill="#E95B51"/>
</svg>
