<svg width="24" height="24" viewBox="0 0 24 24" fill="none" xmlns="http://www.w3.org/2000/svg">
<path fill-rule="evenodd" clip-rule="evenodd" d="M5 3C3.89543 3 3 3.89543 3 5V19C3 20.1046 3.89543 21 5 21H19C20.1046 21 21 20.1046 21 19V5C21 3.89543 20.1046 3 19 3H5ZM14.637 8.36523C16.2861 8.36523 17.4751 9.28569 17.6157 10.9093H15.8131C15.762 10.3148 15.3721 9.91211 14.6881 9.91211C13.7932 9.91211 13.3074 10.5897 13.3074 11.7275C13.3074 12.9292 13.8092 13.5428 14.6753 13.5428C15.3273 13.5428 15.7236 13.1944 15.8131 12.6351L17.6157 12.6479C17.5262 13.7601 16.5546 15.0897 14.637 15.0897C12.8344 15.0897 11.4793 13.9039 11.4793 11.7275C11.4793 9.54137 12.8728 8.36523 14.637 8.36523ZM10.6108 15.0002H5.90625V8.45472H10.6236V9.88654H7.68324V11.0115H10.3807V12.4434H7.68324V13.5684H10.6108V15.0002Z" fill="#1B1E25"/>
</svg>
