<svg width="24" height="24" viewBox="0 0 24 24" fill="none" xmlns="http://www.w3.org/2000/svg">
<path d="M16.1871 12.2003V13.581H17.018C17.6157 13.581 17.9129 13.3541 17.9129 12.9162C17.9129 12.456 17.5837 12.2003 17.0436 12.2003H16.1871Z" fill="#1B1E25"/>
<path d="M16.1871 9.84806V11.1009H16.9157C17.3824 11.1009 17.7084 10.8772 17.7084 10.4745C17.7084 10.0718 17.3824 9.84806 16.9413 9.84806H16.1871Z" fill="#1B1E25"/>
<path fill-rule="evenodd" clip-rule="evenodd" d="M5 3C3.89543 3 3 3.89543 3 5V19C3 20.1046 3.89543 21 5 21H19C20.1046 21 21 20.1046 21 19V5C21 3.89543 20.1046 3 19 3H5ZM7.92853 15H6.22825L4.29785 8.45459H6.27939L7.17427 12.4816H7.22541L8.28649 8.45459H9.84615L10.9072 12.4944H10.9584L11.8532 8.45459H13.8348L11.9044 15H10.2041L9.09189 11.3438H9.04075L7.92853 15ZM17.491 15H14.4101V8.45459H17.2481C18.7439 8.45459 19.5365 9.09379 19.5365 10.091C19.5365 10.8133 19.0283 11.3726 18.2709 11.5228V11.5867C19.1114 11.6187 19.7922 12.2227 19.7922 13.1464C19.7922 14.2234 18.9133 15 17.491 15Z" fill="#1B1E25"/>
</svg>
